<svg height="511pt" viewBox="0 0 511 511.99383" width="511pt" xmlns="http://www.w3.org/2000/svg"><path d="m474.578125 165.066406c-42.9375-52.992187-117.671875-78.089844-182.660156-54.667968-1.554688.554687-8.570313 4.617187-10.125 4.105468-27.125-8.8125-18.085938-79.28125-18.085938-96.894531 0-17.609375-36.167969-17.609375-36.167969-17.609375-27.128906 0-36.167968 17.621094-36.167968 17.621094-27.125 96.890625 9.039062 140.929687 54.253906 167.359375 20.269531 11.847656 31.226562 33.652343 29.722656 56.535156-3.125 47.753906-43.234375 91.453125-94.136718 87.753906-14.847657-1.078125-27.761719-8.714843-40.871094-14.875-43.261719-20.328125-108.824219-11.96875-132.085938 34.355469-22.910156 45.621094 8.828125 97.925781 44.402344 126.652344 24.59375 19.859375 55.179688 31.371094 86.730469 35.160156 10.300781 1.234375 20.71875 1.703125 31.089843 1.277344 1.6875-.070313 10.648438.511718 11.847657-.953125.007812-.015625 23.894531-29.113281 13.410156-44.726563-2.789063-1.953125-5.464844-4.042968-8.023437-6.277344-1.597657-.707031-3.339844-1.351562-5.378907-1.847656-1.386719-.332031-2.867187-.703125-4.402343-1.09375-6.011719-.191406-12.035157-.828125-18.140626-2.382812-4.175781-1.058594-7.679687-3.152344-10.59375-5.824219-39.742187-12.738281-86.925781-34.410156-66.332031-61.167969 12.464844-16.179687 34.71875-9.023437 49.984375-1.210937 7.484375 3.824219 14.597656 8.359375 21.414063 13.214843 1.757812 1.253907 3.59375 2.402344 5.382812 3.613282 4.6875-1.324219 9.695313-1.574219 14.410157-.371094 2.082031.414062 2.847656.617188 2.539062.660156 1.429688.105469 2.851562.222656 4.28125.238282 2.914062.054687 5.835938-.0625 8.75-.210938 6.601562-.335938 13.171875-.996094 19.78125-1.09375 14.621094-.222656 25.488281 11.800781 26.667969 25.660156 27.453125 13.296875 69.050781 12.226563 93.449219 10.0625 40.828124-3.609375 107.183593-10.589844 132.015624-49.46875 6.65625-10.425781 16.890626-13.550781 26.429688-12.039062 34.339844-65.316406 34.386719-152.578125-13.390625-211.554688zm0 0" fill="#f76363"/><path d="m468.902344 406.167969c6.894531-8.722657 12.976562-18.082031 18.246094-27.871094 1.96875-3.664063 3.789062-7.414063 5.535156-11.210937-51.003906 21.328124-98.195313 29.28125-156.9375 12.5-61.792969-17.65625-90.824219-1.484376-128.570313 10.089843-17.144531 5.261719-35.152343 8.449219-53.578125 9.453125.222656.160156.453125.292969.671875.453125 44.652344 31.796875 98.136719 54.324219 152.460938 62.277344 62.148437 9.09375 121.964843-4.820313 162.171875-55.691406zm0 0" fill="#ed8a19"/></svg>