<svg height="512pt" viewBox="0 0 512 512.00406" width="512pt" xmlns="http://www.w3.org/2000/svg"><path d="m273.609375 158.871094v-70.609375h-35.304687v70.609375s4.414062 30.890625-44.128907 79.433594v79.433593c0-34.148437 27.632813-61.78125 61.78125-61.78125 34.148438 0 61.785157 27.632813 61.785157 61.78125v-79.433593c-48.546876-48.542969-44.132813-79.433594-44.132813-79.433594zm0 0" fill="#7383bf"/><path d="m167.695312 132.390625s-88.257812 0-124.3125 104.085937c-5.65625 16.328126-12.84375 32.019532-21.800781 46.796876-9.921875 16.335937-21.57812475 43.097656-21.57812475 78.59375v97.089843s0 17.199219 5.18749975 33.449219c6.285156 19.691406 31.058594 26.1875 45.957032 11.863281 19.03125-18.304687 52.066406-45.3125 81.246093-45.3125 0 0 61.78125 0 61.78125-97.089843v-176.519532s0-52.957031-26.480469-52.957031zm0 0" fill="#f76363"/><path d="m273.609375 61.78125h-35.304687v-44.128906c0-9.753906 7.902343-17.652344 17.652343-17.652344 9.753907 0 17.652344 7.898438 17.652344 17.652344zm0 0" fill="#7383bf"/><path d="m273.609375 105.914062h-35.304687c-14.625 0-26.476563-11.855468-26.476563-26.480468s11.851563-26.476563 26.476563-26.476563h35.304687c14.625 0 26.480469 11.851563 26.480469 26.476563s-11.855469 26.480468-26.480469 26.480468zm0 0" fill="#366db6"/><path d="m35.304688 370.695312c-4.871094 0-8.824219-3.945312-8.824219-8.828124 0-4.878907 3.953125-8.824219 8.824219-8.824219 19.667968 0 34.105468-5.15625 42.921874-15.324219 12.796876-14.753906 10.160157-36.175781 10.125-36.378906-.0625-.414063-.089843-.839844-.089843-1.253906v-44.128907c0-18.316406 9.222656-52.957031 44.132812-52.957031 1.632813-.089844 17.652344-1.820312 17.652344-35.304688 0-4.882812 3.953125-8.824218 8.824219-8.824218s8.824218 3.941406 8.824218 8.824218c0 52.355469-34.949218 52.957032-35.300781 52.957032-26.179687 0-26.480469 33.863281-26.480469 35.304687v43.589844c.53125 4.679687 2.507813 30.300781-14.351562 49.734375-12.320312 14.210938-31.253906 21.414062-56.257812 21.414062zm0 0" fill="#cc4c4c"/><path d="m88.261719 423.652344c-4.871094 0-8.824219-3.945313-8.824219-8.828125 0-9.734375-7.917969-17.652344-17.652344-17.652344-4.871094 0-8.828125-3.945313-8.828125-8.824219 0-4.882812 3.957031-8.828125 8.828125-8.828125 19.46875 0 35.304688 15.835938 35.304688 35.304688 0 4.882812-3.957032 8.828125-8.828125 8.828125zm0 0" fill="#cc4c4c"/><path d="m61.785156 317.738281c-4.871094 0-8.828125-3.945312-8.828125-8.824219 0-24.335937 19.796875-44.132812 44.132813-44.132812 4.871094 0 8.824218 3.945312 8.824218 8.828125 0 4.878906-3.953124 8.824219-8.824218 8.824219-14.597656 0-26.480469 11.878906-26.480469 26.480468 0 4.878907-3.953125 8.824219-8.824219 8.824219zm0 0" fill="#cc4c4c"/><path d="m158.871094 255.957031c-19.46875 0-35.304688-19.796875-35.304688-44.132812 0-4.878907 3.953125-8.824219 8.828125-8.824219 4.871094 0 8.824219 3.945312 8.824219 8.824219 0 14.351562 8.085938 26.480469 17.652344 26.480469 4.871094 0 8.824218 3.945312 8.824218 8.824218 0 4.882813-3.953124 8.828125-8.824218 8.828125zm0 0" fill="#cc4c4c"/><path d="m344.21875 132.390625s88.261719 0 124.316406 104.085937c5.65625 16.328126 12.839844 32.019532 21.800782 46.796876 9.917968 16.335937 21.578124 43.097656 21.578124 78.59375v97.089843s0 17.199219-5.191406 33.449219c-6.28125 19.691406-31.058594 26.1875-45.957031 11.863281-19.027344-18.304687-52.0625-45.3125-81.242187-45.3125 0 0-61.78125 0-61.78125-97.089843v-176.519532s0-52.957031 26.476562-52.957031zm0 0" fill="#f76363"/><g fill="#cc4c4c"><path d="m476.609375 370.695312c-25.003906 0-43.9375-7.203124-56.257813-21.414062-16.855468-19.433594-14.878906-45.046875-14.351562-49.734375v-43.589844c-.007812-1.421875-.503906-35.304687-26.476562-35.304687-.355469 0-35.304688-.601563-35.304688-52.957032 0-4.882812 3.953125-8.824218 8.824219-8.824218 4.875 0 8.828125 3.941406 8.828125 8.824218 0 33.484376 16.019531 35.214844 17.847656 35.304688 34.710938 0 43.933594 34.640625 43.933594 52.957031v44.128907c0 .414062-.027344.839843-.085938 1.253906-.019531.183594-2.746094 21.660156 10.21875 36.496094 8.828125 10.085937 23.230469 15.207031 42.824219 15.207031 4.871094 0 8.828125 3.945312 8.828125 8.824219 0 4.882812-3.957031 8.828124-8.828125 8.828124zm0 0"/><path d="m423.652344 423.652344c-4.871094 0-8.824219-3.945313-8.824219-8.828125 0-19.46875 15.832031-35.304688 35.304687-35.304688 4.871094 0 8.824219 3.945313 8.824219 8.828125 0 4.878906-3.953125 8.824219-8.824219 8.824219-9.738281 0-17.652343 7.917969-17.652343 17.652344 0 4.882812-3.957031 8.828125-8.828125 8.828125zm0 0"/><path d="m450.132812 317.738281c-4.875 0-8.828124-3.945312-8.828124-8.824219 0-14.601562-11.878907-26.480468-26.476563-26.480468-4.875 0-8.828125-3.945313-8.828125-8.824219 0-4.882813 3.953125-8.828125 8.828125-8.828125 24.332031 0 44.128906 19.796875 44.128906 44.132812 0 4.878907-3.953125 8.824219-8.824219 8.824219zm0 0"/><path d="m353.042969 255.957031c-4.871094 0-8.824219-3.945312-8.824219-8.828125 0-4.878906 3.953125-8.824218 8.824219-8.824218 9.570312 0 17.652343-12.128907 17.652343-26.480469 0-4.878907 3.957032-8.824219 8.828126-8.824219 4.871093 0 8.824218 3.945312 8.824218 8.824219 0 24.335937-15.832031 44.132812-35.304687 44.132812zm0 0"/><path d="m145.226562 294.578125c-8.207031 11.386719-9.398437 26.054687-3.503906 43.75.105469.292969 10.230469 29.902344-3.523437 49.304687-8.648438 12.1875-25.453125 18.367188-49.9375 18.367188-31.570313 0-51.199219 38.542969-52.027344 40.183594-2.179687 4.359375-.417969 9.664062 3.945313 11.84375 1.269531.628906 2.621093.929687 3.945312.929687 3.238281 0 6.351562-1.785156 7.90625-4.882812.152344-.300781 15.78125-30.421875 36.230469-30.421875 30.601562 0 52.269531-8.710938 64.394531-25.914063 19.011719-26.929687 6.25-63.761719 5.757812-65.144531-3.945312-11.835938-3.578124-21.148438 1.101563-27.660156 7.988281-11.121094 27.738281-13.636719 34.660156-13.671875v-17.652344c-1.386719 0-34.007812.238281-48.949219 20.96875zm0 0"/><path d="m352.363281 304.90625c4.707031 6.511719 5.085938 15.839844 1.183594 27.527344-.546875 1.554687-13.308594 38.382812 5.703125 65.304687 12.136719 17.203125 33.804688 25.914063 64.402344 25.914063 17.140625 0 31.976562 21.96875 36.242187 30.441406 1.550781 3.078125 4.660157 4.851562 7.898438 4.851562 1.332031 0 2.683593-.300781 3.945312-.933593 4.351563-2.179688 6.117188-7.476563 3.9375-11.828125-.824219-1.640625-20.453125-40.183594-52.023437-40.183594-24.484375 0-41.289063-6.179688-49.9375-18.367188-13.757813-19.402343-3.628906-49.011718-3.476563-49.453124 5.851563-17.546876 4.652344-32.214844-3.558593-43.601563-14.933594-20.730469-47.554688-20.96875-48.9375-20.96875v17.652344c.246093 0 25.0625.367187 34.621093 13.644531zm0 0"/></g></svg>