<svg height="512pt" viewBox="0 -65 512.00493 512" width="512pt" xmlns="http://www.w3.org/2000/svg"><path d="m508.5 209.230469c-4.390625-27.53125-15.730469-50.269531-29.105469-74.410157-11.234375-20.289062-20.371093-40.257812-20.316406-63.800781.054687-21.191406.875-41.910156 3.824219-62.847656.59375-4.203125-2.585938-7.976563-6.828125-7.976563h-111.5625l-28.0625-.19140575c-3.894531-.02734375-7.039063 3.10937475-6.996094 6.99609375.222656 21.320312-.414063 84.046875-.261719 90.113281.527344 20.90625-4.109375 38.097657-11.847656 57.960938-2.339844 6.015625-5.148438 11.898437-8.742188 17.253906-28.445312 42.351563-76.355468 37.378906-115.484374 58.226563-25.742188 13.707031-49.464844 29.722656-78.402344 36.054687-24.636719 5.398437-48.839844 12.246094-73.03125 19.238281-11.140625 3.226563-19.027344 9.664063-21.085938 21.394532-.988281 5.652343-.5117185 20.945312-.246094 28.726562.324219 9.488281 3.664063 19.007812 9.554688 26.464844 12.976562 16.429687 40.34375 20.136718 59.492188 15.09375l.316406-.085938c11.238281-3.15625 23.214844-3.550781 34.378906-.160156 19.152344 5.820312 39.386719 5.777344 59.722656 4.953125 28.078125-1.128906 55.691406-7.207031 81.941406-17.265625 25.882813-9.921875 51.117188-17.914062 78.582032-22.738281 22.628906-3.972657 45.941406-5.945313 68.808594-2.816407 14.882812 2.03125 29.21875 6.746094 44.136718 8.683594 17.464844 2.261719 36.128906 1.808594 51.984375-6.714844 17.390625-9.355468 22.234375-35.554687 22.496094-53.933593.371094-26.085938.859375-52.371094-3.265625-78.21875zm0 0" fill="#fbce9d"/><path d="m459.246094 201.804688c-8.242188-4.773438-13.9375-12.949219-15.554688-22.332032l-6.597656-38.195312h-.882812c-.726563 10.210937-6.953126 21.917968-29.867188 26.5-22.082031 4.417968-30.914062 2.207031-34.226562-1.105469-3.109376-3.105469-7.464844-4.546875-11.394532-2.578125l-2.148437 1.070312c-3.445313 1.722657-7.640625 1.4375-10.695313-.875-6.394531 9.558594-11.492187 22.339844-11.492187 38.820313 0 0-27.460938 0-18.3125 17.667969l45.773437 44.164062s0 35.332032 36.625 26.5c22.769532-5.496094 27.839844-4.734375 28.421875 9.980469.417969 10.519531 9.804688 18.335937 20.21875 16.773437 16.210938-2.429687 28.046875-12.054687 34.617188-44.074218 5.882812-28.601563.785156-57.691406-24.484375-72.316406zm0 0" fill="#d6ce9f"/><path d="m318.085938 220.777344c-1.132813-2.183594-1.695313-4.089844-1.828126-5.769532l-10.363281 2.6875c-10.660156 2.761719-19.414062 11.128907-22.152343 22.179688-2.386719 9.589844-1.414063 21.746094 10.300781 33.898438 0 0 17.019531 26.5 42.546875 8.835937 10.820312-7.492187 18.433594-14.886719 23.789062-21.03125l-.046875-.046875zm0 0" fill="#f2ecbf"/><g fill="#d6ce9f"><path d="m294.394531 274.304688c.042969.054687.042969.0625.089844.125-.027344-.046876-.0625-.089844-.089844-.125zm0 0"/><path d="m294.03125 273.773438c-1.421875-1.484376-2.675781-2.957032-3.796875-4.433594 1.113281 1.476562 2.375 2.960937 3.796875 4.433594zm0 0"/><path d="m282.683594 264.941406h4.617187c-5.238281-9.082031-5.371093-17.808594-3.578125-25.066406 1.503906-6.050781 4.84375-11.246094 9.277344-15.203125-4.398438-2.402344-9.371094-3.894531-14.734375-3.894531-17.074219 0-30.917969 13.839844-30.917969 30.914062 0 1.582032.242188 3.101563.46875 4.621094 17.507813 8.601562 34.867188 8.628906 34.867188 8.628906zm0 0"/></g><path d="m150.988281 332.144531s-3.214843-4.109375-3.214843-4.117187c-3.699219-4.734375-3.347657-13.171875-3.25-19.6875.007812-.734375.027343-1.492188.203124-2.09375.609376-2.101563 2.695313-2.988282 4.804688-3.5-4.335938-2.851563-9.148438-5.238282-11.128906-4.105469-3.480469 1.988281-7.046875 3.699219-10.875 4.609375-13.105469 3.136719-61.195313 4.816406-74.53125 6.148438-4.203125.425781-8.515625 1.492187-11.738282 4.222656-6.253906 5.28125-8.851562 18.179687-3.753906 24.910156 2.683594 3.550781 7.257813 5.121094 11.65625 5.847656 20.582032 3.398438 75.824219-4.480468 96.265625-5 4.210938-.105468 8.054688-2.199218 11.183594-5.855468-1.722656 1.324218-3.828125.90625-5.621094-1.378907zm0 0" fill="#bfb78c"/><path d="m294.03125 273.773438c-2.851562-2.957032-5.042969-5.90625-6.722656-8.832032h-4.617188s-17.667968 0-35.332031-8.832031c-8.03125-4.019531-14.214844-2.542969-18.59375.246094 3.613281 7.542969 7.683594 17.941406 8.3125 19.6875 6.015625 16.847656 9.546875 35.871093 10.078125 54.574219l40.355469-11.527344c2.660156-.761719 5.417969-1.148438 8.191406-1.148438h10.953125c6.277344 0 11.375-5.097656 11.375-11.378906v-17.976562c-14.875-.714844-24-14.8125-24-14.8125zm0 0" fill="#bfb78c"/><path d="m344.511719.207031v88.082031s-23.433594 54.6875 3.164062 75.894532c3.074219 2.445312 7.382813 2.746094 10.898438.988281l2.148437-1.070313c3.929688-1.960937 8.285156-.519531 11.394532 2.582032 3.3125 3.3125 12.144531 5.519531 34.226562 1.101562 44.167969-8.832031 26.5-44.164062 26.5-44.164062s-10.777344-70.585938-16.277344-123.414063zm0 0" fill="#f2ecbf"/><path d="m209.722656 270.011719c5.5625-6.261719 8.9375-14.246094 13.523438-21.402344 1.949218-3.011719 12.78125 24.492187 13.832031 27.445313 6.492187 18.1875 10.253906 38.925781 10.28125 59.046874 0 .273438-.097656.441407-.238281.335938-3.359375-2.445312-59.113282-29.113281-90.300782-2.03125-1.75 1.519531-3.957031 1.121094-5.820312-1.261719 0 0-3.214844-4.109375-3.214844-4.117187-3.703125-4.734375-3.351562-13.171875-3.253906-19.6875.011719-.734375.027344-1.484375.203125-2.105469 2.570313-8.964844 21.871094-12.152344 29.246094-15.226563 10.558593-4.398437 20.980469-9.449218 30.324219-16.09375 2.03125-1.449218 3.816406-3.109374 5.417968-4.902343zm0 0" fill="#f2ecbf"/></svg>