<svg height="511pt" viewBox="0 -4 511.99942 511" width="511pt" xmlns="http://www.w3.org/2000/svg"><path d="m511.621094 25.21875c-.9375-13.992188-12.582032-24.71875-26.394532-24.71875-.59375 0-1.183593.015625-1.792968.0625-14.574219.96875-25.601563 13.558594-24.664063 28.125.238281 3.996094 4.050781 79.746094-43.996093 121.140625-11.925782-15.015625-26.023438-28.152344-42.046876-38.410156-.671874-.433594-1.351562-.855469-2.03125-1.28125-1.613281-.996094-3.308593-1.84375-4.949218-2.796875-2.359375-1.367188-4.699219-2.753906-7.117188-4.015625-2.082031-1.085938-4.21875-2.046875-6.335937-3.046875-2.410157-1.136719-4.796875-2.304688-7.25-3.335938-2.207031-.9375-4.457031-1.757812-6.699219-2.605468-2.453125-.925782-4.890625-1.878907-7.371094-2.710938-2.269531-.757812-4.5625-1.402344-6.867187-2.082031-1.820313-.527344-3.601563-1.164063-5.429688-1.648438-.804687-.214843-1.617187-.355469-2.417969-.558593-.617187-.148438-1.21875-.371094-1.835937-.511719-1.441406-.34375-2.90625-.582031-4.34375-.898438-3.109375-.699219-6.222656-1.371093-9.359375-1.933593-1.367188-.25-2.734375-.441407-4.113281-.671876-3.699219-.609374-7.40625-1.164062-11.128907-1.605468-1.359374-.160156-2.710937-.265625-4.070312-.40625-3.585938-.363282-7.160156-.691406-10.761719-.894532-1.984375-.113281-3.972656-.15625-5.96875-.226562-2.902343-.082031-5.789062-.1875-8.675781-.1875s-5.773438.097656-8.660156.195312c-1.996094.070313-3.980469.105469-5.96875.230469-3.589844.203125-7.175782.527344-10.75.890625-1.359375.140625-2.71875.246094-4.070313.40625-3.734375.433594-7.433593.996094-11.132812 1.605469-1.367188.222656-2.742188.425781-4.113281.671875-3.132813.574219-6.25 1.246094-9.355469 1.933594-1.449219.316406-2.914063.554687-4.34375.898437-.617188.152344-1.226563.363281-1.84375.523438-.8125.183593-1.632813.324219-2.429688.539062-1.828125.476563-3.609375 1.109375-5.429687 1.648438-2.292969.671875-4.589844 1.324219-6.859375 2.082031-2.480469.832031-4.925781 1.777344-7.371094 2.710938-2.242187.847656-4.492187 1.667968-6.699219 2.605468-2.453125 1.03125-4.835937 2.199219-7.238281 3.335938-2.125 1.007812-4.261719 1.96875-6.347656 3.054687-2.410157 1.253907-4.730469 2.640625-7.078125 4-1.652344.953125-3.363282 1.808594-4.988282 2.816407-.679687.421874-1.359374.847656-2.03125 1.277343-16.011718 10.257813-30.117187 23.394531-42.042968 38.410157-48.066406-41.402344-44.253906-117.152344-44.015625-121.148438.933593-14.566406-10.089844-27.15625-24.664063-28.125-.601562-.046875-1.199218-.0625-1.792968-.0625-13.824219 0-25.46875 10.726562-26.394532 24.71875-2.902344 43.5625 9.96875 124.933594 70.03125 170.757812-10.214844 26.679688-12.273437 55.386719-.972656 83.84375 1.582031 3.984376 3.371094 7.867188 5.253906 11.699219.535156 1.085938 1.101563 2.160157 1.65625 3.238281 1.519532 2.941407 3.125 5.835938 4.820313 8.6875.546875.917969 1.070312 1.851563 1.632812 2.761719 2.253907 3.65625 4.609375 7.25 7.109375 10.761719.324219.449219.667969.882812.996094 1.332031 2.242188 3.089844 4.574219 6.117188 6.992188 9.09375.714843.882813 1.4375 1.757813 2.171874 2.621094 2.375 2.832031 4.820313 5.625 7.335938 8.34375.457031.5.898438 1.015625 1.367188 1.507813 3.054687 3.25 6.207031 6.417968 9.4375 9.507812.484374.457031.980468.898438 1.464843 1.359375 2.789063 2.628906 5.640625 5.191406 8.542969 7.6875.714844.617187 1.421875 1.226563 2.148438 1.835937 17.007812 14.390626 35.589843 26.679688 54.085937 36.589844 9.769531 5.246094 19.78125 9.996094 29.96875 14.3125 4.308594 1.828125 7.449219 5.605469 8.34375 10.1875l12.640625 65.339844c1.878906 9.871094 10.53125 16.984375 20.59375 16.984375s18.714844-7.113281 20.621094-16.957031l12.640625-65.34375c.890625-4.578125 4.035156-8.359375 8.34375-10.1875 10.1875-4.316406 20.195312-9.074219 29.96875-14.308594 14.855469-7.960938 29.773437-17.449219 43.890625-28.328125.015625-.007813.027344-.023437.042968-.035156 3.425782-2.636719 6.789063-5.390625 10.109376-8.191407.75-.636718 1.480468-1.269531 2.222656-1.914062 2.859375-2.472656 5.675781-4.996094 8.429687-7.59375.523438-.484375 1.050781-.960938 1.5625-1.445312 3.214844-3.074219 6.339844-6.214844 9.375-9.445313.511719-.539063.992188-1.097656 1.492188-1.644531 2.472656-2.671875 4.875-5.402344 7.203125-8.191406.761718-.910157 1.511718-1.816407 2.261718-2.734376 2.375-2.921874 4.667969-5.898437 6.867188-8.933593.363281-.496094.742188-.972657 1.09375-1.46875 2.480469-3.492188 4.828125-7.070313 7.070312-10.707031.585938-.945313 1.121094-1.90625 1.6875-2.859376 1.667969-2.824218 3.257813-5.683593 4.765626-8.597656.566406-1.09375 1.140624-2.179687 1.6875-3.292968 1.878906-3.832032 3.671874-7.707032 5.242187-11.679688 11.300781-28.460938 9.242187-57.167969-.96875-83.84375 60.035156-45.804688 72.914063-127.1875 70.011719-170.75zm0 0" fill="#cb465f"/><path d="m388.050781 270.289062c-37.09375-16.15625-88.574219-25.785156-128.777343-24.585937-23.753907.707031-38.980469 11.847656-60.652344 17.039063-23.410156 5.605468-50.222656.132812-72.464844 10.867187-8.476562 4.085937-16.351562-.726563-19.535156-7.285156-1.210938.679687-2.507813 1.28125-3.691406 1.976562 1.078124 2.578125 2.207031 5.140625 3.46875 7.691407l1.289062 2.515624c1.226562 2.363282 2.515625 4.695313 3.867188 6.980469l1.316406 2.242188c1.835937 2.992187 3.757812 5.925781 5.664062 8.609375.160156.203125.789063 1.050781.9375 1.261718 1.863282 2.578126 3.8125 5.09375 5.851563 7.601563l1.820312 2.195313c2.003907 2.402343 4.070313 4.75 6.214844 7.070312.105469.117188 1.039063 1.140625 1.144531 1.265625 2.613282 2.777344 5.316406 5.496094 8.371094 8.402344l.996094.917969c2.429687 2.285156 4.898437 4.503906 7.769531 6.984374l1.519531 1.296876c14.386719 12.164062 30.523438 23.082031 47.957032 32.429687 8.5625 4.59375 17.664062 8.933594 27.085937 12.925781 13.390625 5.683594 23.472656 16.832032 27.796875 30.445313 4.316406-13.613281 14.398438-24.761719 27.808594-30.453125 9.398437-3.992188 18.507812-8.335938 27.0625-12.917969 13.851562-7.429687 26.988281-15.90625 39.035156-25.191406.082031-.0625.160156-.125.238281-.1875 2.941407-2.265625 5.820313-4.632813 8.765625-7.121094l1.855469-1.597656c2.472656-2.136719 4.898437-4.316407 7.511719-6.773438.042968-.042969 1.105468-1.015625 1.148437-1.058593 2.753907-2.628907 5.4375-5.332032 8.332031-8.429688l.972657-1.078125c2.089843-2.257813 4.121093-4.582031 6.039062-6.859375l1.949219-2.363281c1.976562-2.429688 3.882812-4.910157 5.746094-7.476563.152344-.195312.714844-.945312.867187-1.140625 2.027344-2.867187 3.953125-5.800781 5.78125-8.765625l1.359375-2.332031c1.332032-2.257813 2.605469-4.554687 3.910156-7.078125l1.226563-2.390625c1.234375-2.507813 2.367187-5.058594 3.441406-7.636719-1.214843-.714844-2.566406-1.34375-3.8125-2.039062-3.9375 4.457031-10.363281 7.007812-17.1875 4.042968zm0 0" fill="#ebba16"/><path d="m102.929688 268.292969c.546874 1.308593 1.171874 2.597656 1.757812 3.894531 40.402344 23.1875 93.324219 37.277344 151.3125 37.277344s110.917969-14.089844 151.324219-37.289063c.582031-1.296875 1.199219-2.574219 1.753906-3.882812-40.625-23.789063-94.261719-38.277344-153.078125-38.277344-58.820312 0-112.453125 14.488281-153.070312 38.277344zm0 0" fill="#c1951a"/></svg>